<svg width="49" height="45" viewBox="0 0 49 45" fill="none" xmlns="http://www.w3.org/2000/svg">
<g clip-path="url(#clip0_125_3825)">
<path d="M24.1053 0.0562002C24.9293 -0.196609 25.8469 0.477549 25.875 1.33897C25.8843 2.90264 25.875 4.46631 25.875 6.03935C25.8937 6.68541 25.3975 7.30339 24.7608 7.42511C23.9555 7.62174 23.0941 6.95695 23.0754 6.13298C23.066 4.56931 23.0754 3.00564 23.066 1.44197C23.0473 0.805264 23.4967 0.215376 24.1053 0.0562002Z" fill="#DF2DB1"/>
<path d="M13.8143 3.33338C14.2918 3.20229 14.8349 3.3521 15.1813 3.70791C16.3985 4.92514 17.6158 6.14237 18.833 7.35023C19.2169 7.69667 19.4135 8.23975 19.2918 8.74536C19.1794 9.28843 18.7113 9.71915 18.1682 9.81278C17.7281 9.88769 17.26 9.74724 16.9416 9.43825C15.7057 8.20229 14.4791 6.96634 13.2431 5.73975C12.9154 5.43076 12.7281 4.97196 12.7843 4.52252C12.8405 3.96072 13.2618 3.46446 13.8143 3.33338Z" fill="#DF2DB1"/>
<path d="M34.4041 3.3333C35.0127 3.16476 35.7243 3.45502 36.0052 4.03555C36.2955 4.56926 36.1831 5.2715 35.743 5.69285C34.4977 6.93817 33.2524 8.19285 31.9977 9.43817C31.4921 9.94379 30.6119 9.97188 30.0876 9.48499C29.4977 8.98873 29.4602 7.99622 30.022 7.45315C31.2674 6.20783 32.5127 4.96252 33.758 3.70783C33.9359 3.52993 34.1606 3.39885 34.4041 3.3333Z" fill="#DF2DB1"/>
<path d="M14.0768 14.5694C15.4625 13.4177 17.2416 12.7716 19.0393 12.7622C21.8202 12.7622 24.6011 12.7622 27.3727 12.7622C28.5431 12.7248 29.7228 13.015 30.706 13.6611C31.2678 14.0169 31.736 14.5038 32.2041 14.972C33.7303 16.4982 35.2659 18.0338 36.7921 19.56C37.1573 19.9158 37.5225 20.2997 37.7285 20.7772C38.3371 22.0506 37.9625 23.7079 36.8483 24.5787C35.6498 25.5806 33.7303 25.4682 32.6255 24.3915C31.2865 23.0712 29.9757 21.7323 28.6461 20.4121C28.3652 20.1312 27.9719 19.9813 27.5787 19.9813C24.0487 19.972 20.5187 19.9813 16.9888 19.9813C15.4625 21.2641 13.9363 22.5469 12.4007 23.8297C11.8296 24.3165 11.2303 24.766 10.7715 25.3652C9.46067 27.0132 9.14232 29.3821 9.95693 31.3203C10.603 32.9121 11.9794 34.1761 13.6086 34.7098C13.7491 35.5619 14.0487 36.3858 14.5075 37.1162C13.7772 37.0694 12.9064 37.3034 12.3071 36.751C11.1648 35.6368 10.0506 34.4944 8.9176 33.3709C6.76405 33.3615 4.61985 33.3709 2.46629 33.3709C2.0824 33.3709 1.67041 33.4083 1.30524 33.2304C0.865169 33.015 0.58427 32.5843 0.5 32.1162V16.8165C0.58427 16.1237 1.20225 15.5525 1.90449 15.5619C5.61236 15.5619 9.32022 15.5619 13.0281 15.5619C13.3652 15.2248 13.7022 14.8783 14.0768 14.5694Z" fill="#F6F6F7"/>
<path d="M39.6016 18.4739C42.0828 18.4739 44.5547 18.4739 47.036 18.4739C47.7195 18.4551 48.3094 19.0076 48.4405 19.6724V35.0188C48.3469 35.7023 47.7383 36.2735 47.0454 36.2641C45.1727 36.2735 43.3001 36.2641 41.4274 36.2641C41.2401 36.2735 41.0061 36.2173 40.8656 36.3765C37.7476 38.9982 34.6203 41.6106 31.5023 44.2323C30.7345 44.8971 29.6484 45.1592 28.6652 44.9064C27.4574 44.6162 26.4929 43.5675 26.315 42.3409C26.1465 41.3952 26.4836 40.4121 27.1016 39.6911C26.4836 40.178 25.8937 40.7023 25.2851 41.1986C24.5828 41.8072 23.609 42.0787 22.7008 41.9195C21.4742 41.7323 20.4349 40.7491 20.154 39.5506C19.8825 38.4832 20.2289 37.3034 21.0154 36.545C20.3319 36.9944 19.4892 37.2285 18.6652 37.0881C17.3918 36.9008 16.3057 35.8615 16.0622 34.5881C15.8469 33.5394 16.212 32.4064 16.9798 31.6761C16.1746 32.2379 15.1259 32.4533 14.1802 32.1536C12.9162 31.7885 11.9705 30.5712 11.933 29.2604C11.8862 28.2772 12.3356 27.2941 13.1034 26.6761C14.6577 25.3933 16.1746 24.0731 17.7383 22.8091C20.8469 22.7997 23.9555 22.7997 27.0641 22.8091C28.0379 23.8016 29.0304 24.7847 30.0135 25.7679C30.4255 26.1705 30.8094 26.6012 31.2776 26.9383C32.3544 27.7435 33.712 28.1555 35.0604 28.0993C36.3338 28.0619 37.5791 27.5937 38.5716 26.7978C39.7701 25.8428 40.5847 24.4008 40.772 22.8746C40.978 21.3203 40.5379 19.7192 39.6016 18.4739Z" fill="#F6F6F7"/>
</g>
<defs>
<clipPath id="clip0_125_3825">
<rect width="47.9401" height="45" fill="white" transform="translate(0.5)"/>
</clipPath>
</defs>
</svg>
