<svg width="23" height="30" viewBox="0 0 23 30" fill="none" xmlns="http://www.w3.org/2000/svg">
<g id="Icon" clip-path="url(#clip0_125_3909)">
<g id="Group">
<g id="Group_2">
<path id="Vector" d="M2.55182 0H14.0772C14.0772 2.05078 14.0772 4.10742 14.0772 6.1582C14.0713 6.93164 14.4346 7.69336 15.0381 8.18555C15.5186 8.58984 16.1456 8.80078 16.7725 8.79492C18.8057 8.79492 20.8331 8.79492 22.8663 8.79492C22.8663 14.9883 22.8663 21.1816 22.8663 27.3691C22.8721 28.2715 22.3741 29.1562 21.6006 29.6191C21.2491 29.8418 20.8448 29.9531 20.4346 30.0059H2.42291C1.96588 29.9355 1.51471 29.8008 1.13971 29.5254C0.442442 29.0391 0.00884771 28.207 0.0147071 27.3633C0.0147071 19.1602 0.0147071 10.957 0.0147071 2.75391C0.0147071 2.4375 0.044004 2.12109 0.143613 1.82227C0.465879 0.791016 1.47369 0.0351562 2.55182 0ZM6.00299 12.3809C5.55768 12.457 5.22369 12.9199 5.29986 13.3652C5.3526 13.7871 5.74518 14.127 6.17291 14.1211C9.6651 14.1211 13.1631 14.1211 16.6612 14.1211C16.9366 14.1328 17.2178 14.0215 17.3936 13.8047C17.6046 13.5586 17.6631 13.1953 17.5284 12.9023C17.3995 12.5859 17.0655 12.3633 16.7256 12.3633C13.3096 12.3633 9.88775 12.3633 6.47174 12.3633C6.30768 12.3633 6.15533 12.3516 6.00299 12.3809ZM6.00299 15.8965C5.45807 15.9844 5.11822 16.6406 5.37604 17.1328C5.52252 17.4551 5.87408 17.6543 6.22564 17.6367C9.72369 17.6367 13.2159 17.6367 16.7139 17.6367C17.0772 17.6367 17.4288 17.3965 17.5401 17.0508C17.6983 16.6465 17.4874 16.1426 17.0889 15.9668C16.8663 15.8496 16.6085 15.8848 16.3682 15.8789C13.087 15.8789 9.80572 15.8789 6.52447 15.8789C6.34869 15.8789 6.17291 15.8672 6.00299 15.8965ZM6.00299 19.4121C5.55768 19.4883 5.22369 19.9512 5.29986 20.3965C5.3526 20.8184 5.74518 21.1582 6.17291 21.1523C9.57135 21.1523 12.9698 21.1523 16.3682 21.1523C16.6378 21.1523 16.9366 21.1816 17.171 21.0234C17.5928 20.7832 17.7276 20.1738 17.4405 19.7812C17.2706 19.5234 16.96 19.3828 16.6553 19.3945C13.2745 19.3945 9.89947 19.3945 6.51861 19.3945C6.34869 19.3945 6.17291 19.3828 6.00299 19.4121ZM6.00299 22.9277C5.55768 23.0039 5.22369 23.4668 5.29986 23.918C5.3526 24.3398 5.74518 24.6797 6.16705 24.6738C8.49322 24.6738 10.8135 24.6738 13.1397 24.6738C13.4268 24.6855 13.7256 24.5566 13.8956 24.3223C14.1006 24.0586 14.1299 23.6719 13.9717 23.3789C13.8253 23.0977 13.5147 22.9102 13.1983 22.916C10.9542 22.916 8.70416 22.916 6.46002 22.916C6.30768 22.9102 6.15533 22.9043 6.00299 22.9277Z" fill="#F6F6F7"/>
</g>
<path id="Vector_2" d="M15.8348 0.521484C18.0086 2.68945 20.1766 4.86328 22.3504 7.03125C20.4696 7.03125 18.5946 7.03125 16.7137 7.03125C16.3504 7.03125 16.0047 6.79102 15.8876 6.44531C15.8231 6.27539 15.8348 6.09375 15.8348 5.91797C15.8348 4.11914 15.8348 2.32031 15.8348 0.521484Z" fill="#41E88D"/>
</g>
</g>
<defs>
<clipPath id="clip0_125_3909">
<rect width="22.8516" height="30" fill="white" transform="translate(0.0146484)"/>
</clipPath>
</defs>
</svg>
