<svg width="48" height="45" viewBox="0 0 48 45" fill="none" xmlns="http://www.w3.org/2000/svg">
<g id="icon" clip-path="url(#clip0_125_3872)">
<g id="Group">
<g id="Group_2">
<path id="Vector" d="M11.945 0.116053C13.1475 -0.0316264 14.3711 0.0105677 15.5842 1.91266e-05C21.8817 1.91266e-05 28.1686 1.91266e-05 34.4661 1.91266e-05C36.0483 0.0105677 37.6412 -0.063272 39.2129 0.200441C41.1116 0.4958 42.9998 1.20255 44.4661 2.48947C45.8585 3.70255 46.7867 5.39032 47.2614 7.17302C47.6306 8.55487 47.7572 10 47.7572 11.4241C47.7572 16.2764 47.7572 21.1287 47.7572 25.9916C47.7889 27.8481 47.7045 29.7258 47.1454 31.4979C46.5758 33.3861 45.4365 35.1372 43.8121 36.2764C41.7762 37.7215 39.2446 38.2173 36.7867 38.249C34.0125 38.2595 31.2277 38.249 28.4534 38.249C27.4302 38.2701 26.4703 37.5 26.2699 36.4979C26.1749 36.0971 26.2488 35.6857 26.291 35.2743C26.6074 32.4051 26.0273 29.4409 24.677 26.8882C23.0842 23.8397 20.3732 21.4135 17.177 20.1477C13.6538 18.7342 9.57156 18.7658 6.07999 20.2637C5.46818 20.5591 4.74033 20.6224 4.10742 20.3481C3.29518 20.0106 2.72556 19.1561 2.74666 18.2701C2.74666 15.8439 2.74666 13.4072 2.74666 10.981C2.77831 8.67091 3.20025 6.27639 4.46607 4.30382C5.49983 2.65825 7.13485 1.42407 8.95974 0.78061C9.91966 0.453606 10.9323 0.232087 11.945 0.116053ZM13.4007 9.67302C12.81 9.89453 12.3669 10.4642 12.3247 11.0971C12.272 11.6561 12.5251 12.2258 12.9576 12.5739C15.2467 14.3988 17.5251 16.2342 19.8142 18.0591C20.9429 18.9557 22.2825 19.5781 23.7066 19.8312C25.7108 20.2004 27.8416 19.8312 29.6138 18.808C30.4049 18.365 31.0905 17.7532 31.7973 17.1941C33.5483 15.7806 35.3205 14.3882 37.0716 12.9747C37.3986 12.711 37.7678 12.4684 37.9787 12.0886C38.3374 11.4557 38.2424 10.6013 37.7256 10.0844C37.1665 9.48314 36.1433 9.39875 35.4893 9.91563C33.2213 11.73 30.9534 13.5443 28.6855 15.3587C28.0104 15.9177 27.1981 16.308 26.3437 16.4874C24.8353 16.8038 23.2002 16.4346 21.9872 15.4853C19.677 13.6393 17.3775 11.8038 15.0673 9.95783C14.6032 9.56753 13.9492 9.46204 13.4007 9.67302Z" fill="#F6F6F7"/>
</g>
<g id="Group_3">
<path id="Vector_2" d="M10.3631 22.595C12.631 22.3102 14.9939 22.7321 17.0086 23.8186C19.6774 25.2216 21.7238 27.7321 22.5572 30.6329C23.285 33.1329 23.1057 35.8756 22.0508 38.2595C21.0065 40.6857 19.0656 42.7005 16.6922 43.8608C14.3082 45.0317 11.5023 45.3165 8.92846 44.6414C6.33352 43.9768 3.99175 42.3524 2.47276 40.1266C0.85884 37.8059 0.183734 34.8735 0.616224 32.0886C0.974874 29.6203 2.18795 27.2996 4.0023 25.5908C5.74281 23.9557 8.00019 22.8903 10.3631 22.595ZM7.06137 29.1667C6.25968 29.1878 5.57403 29.9367 5.61622 30.7384C5.61622 31.5401 6.34407 32.2469 7.14576 32.2258C8.62255 32.2363 10.0888 32.2258 11.5656 32.2258C11.8926 32.2258 12.2407 32.1836 12.5255 32.0148C13.1479 31.6667 13.4432 30.865 13.2006 30.1899C12.9896 29.5675 12.3462 29.1351 11.6922 29.1562C10.1521 29.1667 8.60146 29.1456 7.06137 29.1667ZM7.06137 35.2954C6.57614 35.3165 6.12255 35.5802 5.85884 35.9916C5.50019 36.519 5.53184 37.2574 5.92213 37.7532C6.22804 38.1646 6.73437 38.3756 7.2407 38.3545C10.0888 38.3545 12.9369 38.3545 15.7956 38.3545C16.2069 38.3545 16.6394 38.3861 17.0192 38.1857C17.6943 37.8692 18.0424 37.0148 17.7892 36.3186C17.5888 35.7068 16.9664 35.2743 16.323 35.2848C13.2428 35.2954 10.1521 35.2848 7.06137 35.2954Z" fill="#2D55FB"/>
</g>
</g>
</g>
<defs>
<clipPath id="clip0_125_3872">
<rect width="47.2574" height="45" fill="white" transform="translate(0.5)"/>
</clipPath>
</defs>
</svg>
