<svg width="33" height="30" viewBox="0 0 33 30" fill="none" xmlns="http://www.w3.org/2000/svg">
<g id="Icon" clip-path="url(#clip0_125_3895)">
<g id="Group">
<path id="Vector" d="M10.4312 5.41219C11.0701 5.42722 11.6489 4.85594 11.6339 4.217C11.6339 3.18718 11.6414 2.14985 11.6339 1.12003C11.6038 0.435993 10.9047 -0.120259 10.2282 0.0150455C9.67197 0.0977316 9.22096 0.623915 9.23599 1.1952C9.23599 2.20247 9.23599 3.20973 9.23599 4.20948C9.21344 4.85594 9.79224 5.42722 10.4312 5.41219Z" fill="#F6F6F7"/>
<path id="Vector_2" d="M22.4575 5.41219C23.0965 5.42722 23.6678 4.85594 23.6603 4.217C23.6603 3.18718 23.6678 2.14985 23.6603 1.12003C23.6377 0.435993 22.9311 -0.120259 22.2546 0.0150455C21.6983 0.105248 21.2473 0.631432 21.2624 1.1952C21.2624 2.20247 21.2624 3.20973 21.2624 4.20948C21.2398 4.85594 21.8186 5.42722 22.4575 5.41219Z" fill="#F6F6F7"/>
<path id="Vector_3" d="M32.0799 10.8243H0.80957C0.80957 14.7858 0.80957 19.0178 0.80957 23.0093V26.5873C0.80957 28.4665 2.3355 29.9925 4.21473 29.9925H7.61989C13.9416 29.9925 20.2709 29.9925 26.5926 29.9925C26.6527 29.9925 26.7129 29.9925 26.7805 29.9925H28.6823C30.5615 29.9925 32.0874 28.4665 32.0874 26.5873V23.0093H32.0799C32.0799 19.0178 32.0799 14.7933 32.0799 10.8243ZM22.0223 19.0178C21.9697 19.4462 21.6465 19.7619 21.3007 19.9799L19.5342 21.2503C19.7747 21.9945 20.0153 22.7311 20.2558 23.4753C20.4062 23.8662 20.3986 24.3322 20.1431 24.678C19.7973 25.2042 19.0155 25.3545 18.5044 25.0012C17.8128 24.5126 17.1363 24.009 16.4447 23.5129C15.8133 23.9714 15.1894 24.4224 14.558 24.881C14.34 25.0463 14.092 25.1816 13.8138 25.1967C13.3553 25.2343 12.8968 24.9862 12.6713 24.5878C12.4984 24.2871 12.4758 23.9188 12.5886 23.5956C12.8366 22.8213 13.0922 22.0471 13.3403 21.2728C12.6713 20.7767 11.9947 20.2956 11.3182 19.7995C10.8897 19.4913 10.7169 18.8825 10.9198 18.4014C11.0852 17.9579 11.5362 17.6497 12.0098 17.6422C12.8441 17.6347 13.686 17.6422 14.5279 17.6422C14.791 16.8454 15.0391 16.0486 15.3022 15.2593C15.4676 14.7632 15.9937 14.4174 16.5124 14.4625C16.9785 14.4851 17.4144 14.8158 17.5648 15.2593C17.8279 16.0486 18.0834 16.8454 18.339 17.6347C18.339 17.6422 18.3465 17.6422 18.3465 17.6422C19.1959 17.6497 20.0529 17.6347 20.9023 17.6497C21.6014 17.6572 22.1501 18.3488 22.0223 19.0178Z" fill="#F6F6F7"/>
<path id="Vector_4" d="M26.7426 2.41291C26.1187 2.39036 25.4873 2.42795 24.8634 2.41291C24.8559 3.10447 24.8859 3.80354 24.8484 4.4951C24.7356 5.67525 23.6457 6.64493 22.4655 6.62238C21.2853 6.65245 20.1879 5.67525 20.0751 4.50261C20.0375 3.81106 20.0676 3.11199 20.0601 2.42043H12.8439C12.8363 3.11199 12.8664 3.81106 12.8288 4.50261C12.7161 5.68277 11.6261 6.65245 10.446 6.6299C9.2658 6.65997 8.16833 5.69029 8.05558 4.51013C8.01799 3.81858 8.04806 3.1195 8.04055 2.42043C7.41664 2.42043 6.78522 2.42043 6.16132 2.42043H4.28209C2.35024 2.41291 0.801758 3.9614 0.801758 5.87069V8.1859C0.801758 8.66698 0.824309 9.14807 0.809275 9.62163H32.0796C32.0646 9.14807 32.0872 8.66698 32.0872 8.1859V5.87069C32.0872 3.9614 30.5387 2.4054 28.6219 2.4054H26.7426V2.41291Z" fill="#32CAFD"/>
</g>
</g>
<defs>
<clipPath id="clip0_125_3895">
<rect width="31.2779" height="30" fill="white" transform="translate(0.801758)"/>
</clipPath>
</defs>
</svg>
