<svg width="39" height="30" viewBox="0 0 39 30" fill="none" xmlns="http://www.w3.org/2000/svg">
<g id="Icon" clip-path="url(#clip0_125_3903)">
<g id="Group">
<path id="Vector" d="M5.83573 0.303783C6.36919 0.0444596 6.97675 -0.00740501 7.56208 4.22692e-06C11.0666 4.22692e-06 14.5786 4.22692e-06 18.0832 4.22692e-06C18.2907 -0.0148142 18.4907 0.0666874 18.6167 0.2371C19.5058 1.28921 20.3875 2.34873 21.2766 3.40084C25.5962 3.40084 29.9083 3.40084 34.2279 3.40084C34.6725 3.40084 35.117 3.38603 35.5542 3.46753C36.1988 3.60089 36.7915 3.94172 37.2287 4.43814C37.7251 4.97901 37.977 5.70512 38.0066 6.43863V23.065C37.9696 23.6429 37.7992 24.2134 37.4658 24.6876C36.9842 25.4137 36.1766 25.8879 35.3245 26.0064C35.3245 20.983 35.3245 15.9521 35.3245 10.9286C35.3319 10.3285 35.3171 9.72092 35.1244 9.15041C34.6947 7.70561 33.4648 6.54236 32.0052 6.18672C31.3754 6.0163 30.7234 6.05335 30.0788 6.05335C26.0111 6.05335 21.936 6.05335 17.8683 6.05335C17.2089 5.26797 16.5495 4.49 15.8975 3.70462C15.653 3.40825 15.4085 3.08966 15.0676 2.89702C14.749 2.70438 14.3712 2.65251 14.0007 2.65251C10.7036 2.65251 7.40649 2.65251 4.10938 2.65251C4.25756 1.65226 4.90957 0.733519 5.83573 0.303783Z" fill="#DF2DB1"/>
<path id="Vector_2" d="M1.81286 4.28254C2.28705 4.04544 2.82052 3.96394 3.34658 3.96394C6.92524 3.96394 10.5113 3.96394 14.09 3.96394C14.2826 3.94912 14.4752 4.03804 14.5938 4.19363C15.4903 5.25315 16.372 6.31267 17.2685 7.36478C21.8178 7.36478 26.3597 7.35737 30.9089 7.37219C32.0722 7.35737 33.2058 8.04643 33.7022 9.09854C33.9986 9.68387 34.0356 10.3507 34.0208 10.9953C34.0208 16.2336 34.0208 21.4646 34.0208 26.7029C34.0134 27.1326 33.9764 27.5772 33.8208 27.9847C33.517 28.8368 32.8057 29.5406 31.9388 29.8296C31.3905 30.0222 30.8052 30.0074 30.2347 30.0074C21.4177 30.0074 12.6007 30.0074 3.78372 30.0074C3.17616 30.0148 2.54638 30.0148 1.97587 29.7703C0.87189 29.3332 0.116148 28.207 0.0791016 27.0289V6.98691C0.108739 5.8533 0.782979 4.76414 1.81286 4.28254Z" fill="#F6F6F7"/>
</g>
</g>
<defs>
<clipPath id="clip0_125_3903">
<rect width="37.9353" height="30" fill="white" transform="translate(0.0791016)"/>
</clipPath>
</defs>
</svg>
