<svg width="46" height="45" viewBox="0 0 46 45" fill="none" xmlns="http://www.w3.org/2000/svg">
<g id="icon" clip-path="url(#clip0_125_3857)">
<g id="Group">
<path id="Vector" d="M14.7475 0H31.2006C32.0268 0.0703125 32.8266 0.439453 33.3803 1.05469C33.9516 1.66992 34.268 2.50488 34.2592 3.34863C34.2592 5.98535 34.2592 8.62207 34.2592 11.2588C34.2592 11.7334 34.2592 12.2256 34.1098 12.6826C33.7319 13.9922 32.4663 14.9766 31.0952 15.0117C29.7065 15.0205 28.3178 15.0117 26.9292 15.0117C25.9624 16.1016 25.0131 17.2002 24.0463 18.29C23.5102 18.9316 22.4292 18.9141 21.9194 18.2549C21.102 17.1826 20.2934 16.0928 19.4848 15.0117C17.9643 15.0029 16.435 15.0205 14.9057 15.0029C13.5434 14.9678 12.2778 13.9922 11.8911 12.6826C11.7504 12.252 11.7417 11.7949 11.7504 11.3467C11.7504 8.64844 11.7504 5.95898 11.7504 3.26074C11.7504 2.36426 12.146 1.48535 12.8051 0.878906C13.3325 0.37793 14.0268 0.0878906 14.7475 0Z" fill="#F6F6F7"/>
<path id="Vector_2" d="M0.693359 4.05176C1.12402 2.82129 2.35449 1.90723 3.66406 1.88086C5.4834 1.87207 7.30273 1.88086 9.11328 1.87207C8.99902 2.35547 8.92871 2.84766 8.9375 3.33984C8.9375 6.17871 8.92871 9.02637 8.94629 11.8652C8.97266 13.9131 10.1416 15.8555 11.8643 16.9365C10.915 18.0264 9.96582 19.1162 9.00781 20.1973C8.48047 20.8125 7.43457 20.751 6.93359 20.127C6.10742 19.0547 5.29883 17.9561 4.47266 16.875C3.75195 16.9014 2.99609 16.8838 2.33691 16.5322C1.31738 16.04 0.623047 15.0029 0.5 13.8779V4.88672C0.543945 4.60547 0.59668 4.32422 0.693359 4.05176Z" fill="#FFC933"/>
<path id="Vector_3" d="M36.8779 1.87207C38.6709 1.87207 40.4551 1.87207 42.248 1.87207C43.2412 1.87207 44.208 2.36426 44.8057 3.15527C45.21 3.67383 45.4385 4.31543 45.4912 4.96582V13.8516C45.3682 15.126 44.4893 16.2861 43.2676 16.6904C42.6963 16.9014 42.0811 16.8662 41.4834 16.875C40.71 17.9297 39.9189 18.9668 39.1367 20.0215C38.7852 20.5225 38.0908 20.7598 37.5107 20.54C37.1328 20.4258 36.8955 20.0918 36.6494 19.8105C35.8057 18.8525 34.9619 17.8857 34.1182 16.9277C35.4893 16.0664 36.5176 14.6689 36.8779 13.0869C37.0801 12.2783 37.0361 11.4434 37.0361 10.626C37.0361 8.2002 37.0361 5.76562 37.0361 3.33984C37.0625 2.84766 37.001 2.35547 36.8779 1.87207Z" fill="#FFC933"/>
<path id="Vector_4" d="M22.5867 21.5772C23.7029 21.4981 24.8367 21.753 25.8035 22.3155C27.1394 23.0889 28.1326 24.4249 28.4753 25.9278C28.7302 27.0264 28.6423 28.1954 28.2293 29.2413C27.6492 30.7354 26.3923 31.9571 24.8718 32.4932C23.905 32.836 22.8416 32.9063 21.8396 32.6954C20.3191 32.379 18.948 31.3946 18.157 30.0587C17.5593 29.0567 17.2869 27.8702 17.3923 26.71C17.4978 25.3917 18.0867 24.126 19.0359 23.2032C19.9763 22.254 21.2595 21.6651 22.5867 21.5772Z" fill="#F6F6F7"/>
<path id="Vector_5" d="M7.6458 24.3896C8.73564 24.2841 9.86064 24.6796 10.6341 25.4531C11.4075 26.2089 11.8206 27.3076 11.7415 28.3886C11.68 29.373 11.1966 30.3134 10.4583 30.955C9.64971 31.6669 8.51592 31.9921 7.45244 31.8251C6.3626 31.6757 5.36064 30.999 4.79814 30.0585C4.23564 29.1445 4.10381 27.9755 4.44658 26.956C4.87725 25.5673 6.1956 24.5126 7.6458 24.3896Z" fill="#F6F6F7"/>
<path id="Vector_6" d="M37.6253 24.3984C38.636 24.3017 39.6731 24.6181 40.4378 25.2861C41.2551 25.9804 41.7473 27.0527 41.7473 28.1338C41.7561 29.2588 41.22 30.3662 40.3411 31.0605C39.5061 31.7373 38.3723 32.0185 37.3176 31.8164C36.2542 31.623 35.2874 30.9463 34.7512 30.0058C34.2151 29.083 34.1008 27.9316 34.4524 26.9297C34.9006 25.5586 36.1926 24.5215 37.6253 24.3984Z" fill="#F6F6F7"/>
<path id="Vector_7" d="M2.57422 34.7784C3.46191 34.1104 4.57812 33.7412 5.68555 33.75C7.24121 33.75 8.78809 33.75 10.3438 33.75C11.2754 33.75 12.207 34.0137 13.0068 34.4971C12.1191 35.1826 11.3633 36.044 10.8271 37.0371C10.124 38.3203 9.8252 39.7969 9.87793 41.2471C7.22363 41.2471 4.56934 41.2471 1.90625 41.2471C1.21191 41.2559 0.59668 40.6846 0.5 40.0078V38.628C0.587891 37.125 1.35254 35.6748 2.57422 34.7784Z" fill="#F6F6F7"/>
<path id="Vector_8" d="M32.9932 34.4971C33.793 34.0137 34.7246 33.75 35.6562 33.75C37.2119 33.75 38.7588 33.75 40.3057 33.75C41.668 33.7412 43.0303 34.2949 43.9883 35.2617C44.8848 36.1494 45.4209 37.3799 45.5 38.6279V39.9902C45.4297 40.4472 45.1572 40.8691 44.7441 41.0888C44.3926 41.2998 43.9619 41.2471 43.5664 41.2558C41.0879 41.2558 38.6094 41.2558 36.1309 41.2558C36.1396 40.5088 36.1045 39.7617 35.9287 39.0322C35.5244 37.2305 34.4609 35.6045 32.9932 34.4971Z" fill="#F6F6F7"/>
<path id="Vector_9" d="M16.2502 35.877C17.1819 35.543 18.175 35.6309 19.1418 35.6221C22.1301 35.6221 25.1184 35.6221 28.1067 35.6221C29.1877 35.6133 30.2688 35.9473 31.1477 36.5801C32.1672 37.3008 32.9055 38.4082 33.178 39.6299C33.3625 40.377 33.301 41.1504 33.3098 41.915C33.301 42.5039 33.3186 43.084 33.301 43.6728C33.2834 44.3408 32.7209 44.9033 32.0706 44.9912H13.9475C13.262 44.9033 12.6731 44.2881 12.6907 43.585C12.6907 42.5566 12.6819 41.5371 12.6995 40.5088C12.7786 38.4346 14.2639 36.501 16.2502 35.877Z" fill="#F6F6F7"/>
</g>
</g>
<defs>
<clipPath id="clip0_125_3857">
<rect width="45" height="45" fill="white" transform="translate(0.5)"/>
</clipPath>
</defs>
</svg>
