<svg width="54" height="45" viewBox="0 0 54 45" fill="none" xmlns="http://www.w3.org/2000/svg">
<path d="M25.8542 2.08023C27.4784 1.85361 29.1687 2.10856 30.6418 2.82622C32.6059 3.76106 34.1734 5.48909 34.9099 7.53818C35.8447 10.0689 35.4387 13.0622 33.8429 15.2435C32.4264 17.2737 30.0563 18.6052 27.5823 18.7468C25.1177 18.9357 22.6059 17.9347 20.9251 16.1312C19.8297 14.9791 19.0743 13.506 18.791 11.9385C18.3944 9.91778 18.791 7.75537 19.8769 6.00845C21.1612 3.89326 23.4086 2.40129 25.8542 2.08023Z" fill="white"/>
<path d="M11.4632 9.87055C12.8702 9.6817 14.3433 9.99331 15.5614 10.7393C16.7229 11.4475 17.6388 12.5429 18.1393 13.8177C18.6681 15.168 18.7059 16.6977 18.2432 18.0669C17.6105 20.0027 15.9675 21.5702 14.0033 22.1273C12.5208 22.5523 10.8778 22.4012 9.49912 21.7119C8.14879 21.0414 7.06287 19.8705 6.4963 18.4824C5.94862 17.1699 5.87307 15.659 6.28856 14.2992C6.94956 11.9669 9.06475 10.1538 11.4632 9.87055Z" fill="#B756FE"/>
<path d="M41.0105 9.86116C42.3702 9.70064 43.7867 9.98392 44.967 10.6921C46.1568 11.4003 47.1105 12.5146 47.611 13.8083C48.187 15.2719 48.187 16.9527 47.5921 18.4069C47.035 19.8328 45.9302 21.0226 44.561 21.7025C43.56 22.2124 42.408 22.4201 41.2938 22.3446C39.3108 22.2124 37.4411 21.0415 36.4213 19.3418C35.0804 17.2455 35.222 14.3465 36.7234 12.373C37.7244 10.9849 39.3108 10.0595 41.0105 9.86116Z" fill="#B756FE"/>
<path d="M22.0295 20.5315C22.681 20.4749 23.342 20.4937 23.9936 20.4937C26.4204 20.4937 28.8377 20.4937 31.2645 20.4937C32.9454 20.4843 34.6167 21.1075 35.8821 22.2218C37.0719 23.2605 37.9028 24.7052 38.1578 26.2633C38.2994 27.0093 38.2617 27.7742 38.2711 28.539C38.2711 32.8827 38.2711 37.217 38.2711 41.5607C38.29 42.0989 37.9689 42.6372 37.4685 42.8638C37.1285 43.0338 36.7319 42.996 36.3637 43.0054C29.9709 43.0054 23.5875 43.0054 17.1947 43.0054C16.4204 43.0432 15.7217 42.3444 15.7689 41.5701C15.7689 36.8865 15.7689 32.1934 15.7689 27.5098C15.7689 25.9895 16.2693 24.4692 17.1947 23.2605C18.3468 21.7308 20.1409 20.7204 22.0295 20.5315Z" fill="white"/>
<path d="M5.11784 25.98C6.34541 24.8374 7.98846 24.1764 9.65984 24.1386C10.9629 24.1197 12.2661 24.1292 13.5692 24.1292C13.1537 25.3001 12.9648 26.5371 12.9743 27.7836C12.9743 31.9101 12.9743 36.0271 12.9743 40.1537C12.9837 41.1074 12.8987 42.08 13.2103 42.996C11.5767 42.996 9.95256 42.996 8.31896 42.996C7.62963 42.9865 6.9403 43.0243 6.25098 42.911C5.46722 42.7599 4.74013 42.3916 4.15467 41.8439C3.35203 41.0885 2.89878 39.9931 2.85156 38.8789V30.9375C2.90822 29.0678 3.72974 27.2359 5.11784 25.98Z" fill="#B756FE"/>
<path d="M40.4814 24.1293C41.6335 24.1199 42.7855 24.1293 43.9281 24.1293C44.6268 24.1293 45.3351 24.186 46.0055 24.3654C47.5258 24.762 48.895 25.7063 49.8298 26.9716C50.6797 28.1142 51.1518 29.5117 51.1896 30.9376V38.879C51.1424 39.5117 51.0196 40.1538 50.7175 40.7204C50.132 41.8724 48.98 42.7222 47.7052 42.93C47.0442 43.0339 46.3832 42.9961 45.7128 43.0055C44.0792 43.0055 42.455 43.0055 40.8214 43.0055C40.9819 42.4862 41.0669 41.9385 41.0575 41.3908C41.0575 36.7921 41.0575 32.1935 41.0575 27.6043C41.0763 26.4145 40.8686 25.2436 40.4814 24.1293Z" fill="#B756FE"/>
</svg>
