<svg xmlns="http://www.w3.org/2000/svg" width="417" height="211" fill="none"><path fill="#0E1330" d="M0 10A10 10 0 0 1 10 0h397a10 10 0 0 1 10 10v201H0V10Z"/><mask id="a" width="417" height="211" x="0" y="0" maskUnits="userSpaceOnUse" style="mask-type:alpha"><path fill="#0E1330" d="M0 10A10 10 0 0 1 10 0h397a10 10 0 0 1 10 10v201H0V10Z"/></mask><g mask="url(#a)"><path fill="#F6F6F7" d="M30.6 19.4V31h-1.3l-6.4-9.1V31h-1.5V19.4h1.4l6.3 9.1h.1v-9.1h1.4ZM37 31.2c-.8 0-1.5-.2-2.1-.6-.6-.4-1.1-.9-1.4-1.5-.4-.7-.5-1.5-.5-2.4 0-.9.1-1.7.5-2.4.3-.6.7-1.2 1.3-1.6.6-.3 1.3-.5 2.1-.5.5 0 .9 0 1.3.2a3.3 3.3 0 0 1 2.1 2c.2.6.3 1.3.3 2.1v.6h-6.7v-1.2h5.4c0-.5-.1-.9-.3-1.3a2.2 2.2 0 0 0-2.1-1.2c-.5 0-1 .1-1.4.4-.4.2-.7.6-.9 1a3 3 0 0 0-.3 1.3v.8c0 .7.1 1.2.3 1.7.3.4.6.8 1 1 .4.3.9.4 1.4.4.4 0 .7 0 1-.2.3 0 .5-.2.7-.4l.5-.8 1.3.4c-.1.4-.4.8-.7 1.1-.3.4-.7.6-1.2.8-.4.2-1 .3-1.6.3Zm7.7-.2-2.7-8.7h1.4l1.9 6.7 2-6.7h1.4l1.8 6.6h.1l1.9-6.6h1.4L51.2 31h-1.4L48 24.3h-.1l-2 6.7h-1.2Zm15.7-11.6H62l3.9 9.6h.1l4-9.6h1.7V31h-1.3v-8.8h-.2L66.6 31h-1.3l-3.6-8.8h-.1V31h-1.3V19.4ZM78 31.2c-.9 0-1.6-.2-2.2-.6-.6-.4-1-.9-1.4-1.5-.3-.7-.5-1.5-.5-2.4 0-.9.2-1.7.5-2.4a3.7 3.7 0 0 1 3.4-2.2c.5 0 1 .1 1.4.3a3.3 3.3 0 0 1 2 2c.3.6.4 1.3.4 2.1v.6h-6.7v-1.2h5.3c0-.5 0-.9-.3-1.3a2.2 2.2 0 0 0-2-1.2c-.6 0-1 .1-1.4.4-.4.2-.7.6-1 1a3 3 0 0 0-.2 1.3v.8c0 .7 0 1.2.3 1.7.2.4.5.8 1 1 .4.3.8.4 1.4.4.3 0 .7 0 1-.2l.7-.4.5-.8 1.3.4-.7 1.1c-.4.4-.7.6-1.2.8-.5.2-1 .3-1.6.3Zm11.8-7-1.2.4-.3-.6-.6-.5-1-.2c-.5 0-1 .1-1.3.4-.4.2-.5.5-.5 1 0 .2 0 .5.3.7.3.2.6.4 1.2.5l1.3.3c.7.2 1.3.5 1.7.9.4.4.6.9.6 1.5 0 .5-.2 1-.5 1.3-.2.4-.6.7-1.2 1-.5.2-1 .3-1.7.3a4 4 0 0 1-2.2-.6c-.6-.4-1-1-1.2-1.7l1.3-.3c.1.5.4.8.7 1 .3.3.8.4 1.3.4.7 0 1.2-.1 1.5-.4.4-.3.6-.6.6-1a1 1 0 0 0-.3-.7 2 2 0 0 0-1-.5l-1.5-.3c-.8-.2-1.3-.5-1.7-1-.4-.3-.6-.8-.6-1.4 0-.5.2-1 .4-1.3.3-.4.7-.7 1.2-1a4 4 0 0 1 1.6-.2c.9 0 1.6.1 2 .5.6.4 1 1 1.1 1.5Zm8.4 0-1.2.4-.4-.6c-.1-.2-.3-.4-.6-.5l-1-.2c-.5 0-.9.1-1.3.4-.3.2-.5.5-.5 1 0 .2.1.5.4.7.2.2.6.4 1.1.5l1.3.3c.8.2 1.4.5 1.8.9.3.4.5.9.5 1.5 0 .5-.1 1-.4 1.3-.3.4-.7.7-1.2 1-.5.2-1.1.3-1.8.3a4 4 0 0 1-2.2-.6c-.6-.4-1-1-1-1.7l1.2-.3c.1.5.3.8.7 1 .3.3.8.4 1.3.4.6 0 1.1-.1 1.5-.4.4-.3.5-.6.5-1a1 1 0 0 0-.3-.7 2 2 0 0 0-1-.5l-1.4-.3c-.8-.2-1.4-.5-1.8-1-.3-.3-.5-.8-.5-1.4 0-.5.1-1 .4-1.3l1.1-1a4 4 0 0 1 1.7-.2c.8 0 1.5.1 2 .5s.9 1 1 1.5Zm4.7 7-1.5-.3c-.4-.2-.8-.5-1-1-.3-.3-.5-.8-.5-1.4 0-.5.1-.9.3-1.2.2-.3.5-.6.8-.7l1.1-.4a13.3 13.3 0 0 1 2.5-.4c.4 0 .6-.1.7-.2.2 0 .3-.2.3-.4 0-.6-.2-1-.5-1.4-.3-.3-.7-.5-1.4-.5-.6 0-1.1.2-1.5.5-.3.2-.6.5-.7.9l-1.3-.5c.2-.5.5-1 .9-1.2l1.3-.7a5.2 5.2 0 0 1 2.3 0c.3 0 .7.2 1 .4.4.2.7.5.9.9.2.4.3 1 .3 1.6V31h-1.3v-1.2l-.5.6-.9.6-1.3.2Zm.2-1.2c.6 0 1-.1 1.4-.3a2.1 2.1 0 0 0 1-1.9v-1.2l-.3.2a6.4 6.4 0 0 1-1.4.2 35 35 0 0 0-1.5.3c-.3.1-.6.3-.7.5-.2.2-.3.4-.3.8 0 .5.2.8.5 1 .4.3.8.4 1.3.4Zm9.8 4.5a5 5 0 0 1-1.7-.3 3.5 3.5 0 0 1-1.9-1.5l1-.7.6.5c.1.2.4.4.7.5.3.2.8.3 1.3.3.7 0 1.3-.2 1.7-.5.5-.4.7-1 .7-1.6v-1.8l-.5.6-.8.6c-.3.2-.8.3-1.3.3-.7 0-1.4-.2-2-.5-.5-.4-1-.9-1.3-1.5a5 5 0 0 1-.4-2.3c0-.9.1-1.7.4-2.3.3-.7.8-1.2 1.3-1.6.6-.4 1.3-.5 2-.5.6 0 1 0 1.3.2.4.2.6.4.8.7l.4.6h.2v-1.4h1.3v9a3 3 0 0 1-.5 1.8 3 3 0 0 1-1.4 1c-.6.2-1.2.4-2 .4Zm0-4.8a2.3 2.3 0 0 0 2.2-1.4l.2-1.7c0-.7 0-1.2-.2-1.7s-.5-.9-.9-1.1c-.4-.3-.8-.4-1.4-.4a2.3 2.3 0 0 0-2.2 1.6c-.2.4-.3 1-.3 1.6 0 .6 0 1.1.3 1.6.2.4.5.8.8 1 .4.3.9.5 1.4.5Zm9.9 1.5c-.9 0-1.6-.2-2.2-.6-.6-.4-1-.9-1.4-1.5-.3-.7-.5-1.5-.5-2.4 0-.9.2-1.7.5-2.4a3.7 3.7 0 0 1 3.4-2.2c.5 0 1 .1 1.4.3a3.3 3.3 0 0 1 2 2c.3.6.4 1.3.4 2.1v.6h-6.7v-1.2h5.3c0-.5 0-.9-.3-1.3a2.2 2.2 0 0 0-2-1.2c-.6 0-1 .1-1.4.4-.4.2-.7.6-1 1a3 3 0 0 0-.3 1.3v.8c0 .7.2 1.2.4 1.7.2.4.5.8 1 1 .4.3.8.4 1.4.4.3 0 .6 0 1-.2l.7-.4.5-.8 1.3.4-.7 1.1c-.4.4-.8.6-1.2.8-.5.2-1 .3-1.6.3Z"/><path stroke="#282D45" d="M21 133.5h376"/><path fill="#8F9BB7" d="M27.8 114.4c0-.5-.3-1-.7-1.2-.4-.3-1-.4-1.6-.4a3 3 0 0 0-1.2.2c-.3.1-.6.3-.8.6a1.4 1.4 0 0 0 0 1.6c0 .2.3.3.5.4l.6.4.6.2 1 .2 1 .3.9.5.7.8.3 1.2c0 .6-.1 1-.4 1.5a3 3 0 0 1-1.3 1 4.7 4.7 0 0 1-3.9 0 2.8 2.8 0 0 1-1.8-2.5h1.4c0 .6.1.9.4 1.1.2.3.5.5.8.6l1.2.2 1.2-.3c.4-.1.7-.3 1-.6l.2-1c0-.3 0-.6-.2-.8a2 2 0 0 0-.8-.5 8 8 0 0 0-1-.4l-1.2-.3c-.8-.3-1.5-.6-2-1-.4-.4-.6-1-.6-1.7 0-.5.1-1 .4-1.5a3 3 0 0 1 1.3-1c.5-.2 1.1-.3 1.8-.3.6 0 1.2.1 1.7.3.5.3 1 .6 1.2 1 .3.4.5.8.5 1.4h-1.2Zm8 4.5v-4.5H37v7.6h-1.2v-1.3c-.2.4-.5.7-.9 1-.4.3-.9.4-1.4.4a2.2 2.2 0 0 1-2.1-1.3c-.3-.4-.4-1-.4-1.6v-4.8h1.2v4.7c0 .6.1 1 .4 1.4.4.3.8.5 1.2.5a2 2 0 0 0 2-2.1Zm3.5 3.1v-10.2h1.2v3.8l.4-.5.7-.6c.3-.2.7-.2 1.2-.2a3 3 0 0 1 2.8 1.8c.3.6.4 1.3.4 2.1a5 5 0 0 1-.4 2.1c-.3.6-.6 1-1.1 1.4a3 3 0 0 1-1.7.5c-.5 0-.9-.1-1.2-.3l-.7-.5-.3-.6h-.2v1.2h-1.1Zm1.1-3.8c0 .6.1 1 .3 1.5.2.4.4.8.7 1 .4.3.8.4 1.2.4a2 2 0 0 0 1.3-.4c.3-.2.5-.6.7-1l.3-1.5c0-.6-.1-1-.3-1.5-.1-.4-.4-.7-.7-1a2 2 0 0 0-1.3-.4 2 2 0 0 0-1.9 1.4c-.2.4-.3 1-.3 1.5Zm7.4-3.8H49v8.2c0 .4 0 .8-.2 1.2-.2.3-.4.6-.8.8-.3.2-.7.3-1.2.3h-.2v-1.1h.2c.4 0 .6-.1.8-.3l.2-1v-8.1Zm.6-1.3c-.2 0-.4 0-.6-.2a.8.8 0 0 1-.2-.6c0-.2 0-.4.2-.6l.6-.2c.2 0 .4 0 .6.2.2.2.2.4.2.6 0 .2 0 .4-.2.6l-.6.2Zm6 9c-.8 0-1.4-.1-2-.4-.5-.4-.9-.8-1.2-1.4-.3-.6-.4-1.3-.4-2 0-.8.1-1.5.4-2.1.3-.6.7-1 1.2-1.4.5-.4 1.1-.5 1.8-.5.4 0 .8 0 1.2.2a3 3 0 0 1 1.8 1.8c.2.5.3 1 .3 1.8v.5h-5.9v-1h4.7c0-.5 0-.8-.2-1.2a2 2 0 0 0-1.9-1c-.4 0-.8 0-1.2.3-.3.2-.6.5-.8.9l-.2 1.1v.7c0 .6 0 1 .3 1.5.2.4.4.7.8.9.4.2.8.3 1.3.3l.8-.1c.2-.1.5-.2.6-.4l.5-.7 1.1.3c-.1.4-.3.8-.6 1a3 3 0 0 1-1 .7l-1.4.3Zm8 0c-.7 0-1.3-.1-1.8-.4-.6-.4-1-.9-1.2-1.4a4.7 4.7 0 0 1 0-4c.3-.7.7-1.2 1.2-1.5.5-.4 1.1-.5 1.8-.5.5 0 1 0 1.4.3.5.2.8.4 1.1.8.3.4.4.8.5 1.3h-1.2c0-.4-.3-.7-.6-1-.3-.2-.7-.4-1.2-.4a2 2 0 0 0-1.2.4c-.3.2-.6.5-.8 1-.2.4-.3 1-.3 1.5 0 .6.1 1 .3 1.5.2.5.5.8.8 1 .3.3.7.4 1.2.4.3 0 .6 0 .8-.2a1.7 1.7 0 0 0 1-1.1h1.2a2.7 2.7 0 0 1-1.5 2c-.4.3-1 .4-1.5.4Zm8-7.7v1h-4v-1h4Zm-2.8-1.9h1.2v7.3c0 .3 0 .6.2.8l.3.3h1l.3 1a2.4 2.4 0 0 1-.9.2c-.3 0-.6 0-1-.2a2 2 0 0 1-.8-.7c-.2-.3-.3-.6-.3-1v-7.7Z"/><path fill="#F6F6F7" d="M96.4 122h-3.2v-10.2h3.3c1 0 1.8.2 2.5.6a4 4 0 0 1 1.7 1.8c.3.7.5 1.6.5 2.7 0 1-.2 2-.5 2.7a4 4 0 0 1-1.7 1.8c-.7.4-1.6.6-2.6.6Zm-2-1h1.9a4 4 0 0 0 2-.6 3 3 0 0 0 1.3-1.4c.3-.6.4-1.3.4-2.1s-.1-1.5-.4-2.1a3 3 0 0 0-1.2-1.4c-.5-.3-1.2-.5-2-.5h-2v8Zm11 1.2c-.5 0-1-.1-1.3-.3-.4-.2-.7-.4-1-.8-.2-.3-.3-.8-.3-1.3 0-.4 0-.8.2-1l.7-.7c.3-.1.6-.3 1-.3a11.7 11.7 0 0 1 2.2-.3l.6-.2.2-.4c0-.5-.1-1-.4-1.2-.3-.3-.7-.4-1.2-.4-.6 0-1 .1-1.3.4-.3.2-.6.5-.7.8l-1.1-.4a2.7 2.7 0 0 1 1.9-1.7 4.5 4.5 0 0 1 2 0l1 .3.7.8c.2.4.3.9.3 1.5v5h-1.2v-1l-.4.5-.8.5-1.1.2Zm.2-1c.4 0 .8-.2 1.1-.3a1.9 1.9 0 0 0 1-1.7v-1l-.3.1a5.5 5.5 0 0 1-1.2.2 38.5 38.5 0 0 0-1.4.3c-.2 0-.4.2-.6.4a1 1 0 0 0-.2.7c0 .4.1.7.4 1l1.2.2Zm8.5 1c-.7 0-1.3-.2-1.8-.5-.5-.4-1-.9-1.2-1.4-.3-.6-.4-1.3-.4-2 0-.9.1-1.5.4-2.1.3-.6.7-1 1.2-1.4.5-.4 1.1-.5 1.8-.5.5 0 1 0 1.5.3a2.6 2.6 0 0 1 1.6 2H116a1.8 1.8 0 0 0-1.9-1.3 2 2 0 0 0-1.2.4c-.3.2-.6.5-.8 1-.2.4-.3 1-.3 1.5 0 .6.1 1 .3 1.5.2.5.5.8.8 1a2.1 2.1 0 0 0 2 .2 1.7 1.7 0 0 0 1-1.1h1.2a2.7 2.7 0 0 1-1.5 2c-.4.3-1 .4-1.5.4Zm4.7-.2v-7.6h1.2v7.6h-1.2Zm.6-9-.6-.1a.8.8 0 0 1-.2-.6c0-.2 0-.4.3-.6l.5-.2c.3 0 .5 0 .6.2l.3.6-.3.6-.6.2Zm4-1.2V122h-1.2v-10.2h1.1Zm2 10.2v-7.6h1.3v7.6h-1.2Zm.7-9-.6-.1a.7.7 0 0 1-.2-.6c0-.2 0-.4.2-.6l.6-.2c.2 0 .4 0 .6.2l.2.6c0 .2 0 .4-.2.6l-.6.2Zm8.1 3-1 .4a2 2 0 0 0-.3-.5l-.5-.5-.9-.1a2 2 0 0 0-1.2.3c-.3.2-.4.5-.4.8 0 .3 0 .5.3.7.2.2.5.3 1 .4l1.1.3c.7.2 1.2.4 1.6.8.3.3.5.7.5 1.3 0 .4-.2.8-.4 1.1-.3.4-.6.7-1 .9-.5.2-1 .3-1.6.3-.8 0-1.4-.2-2-.5-.5-.4-.8-.9-1-1.5l1.2-.3c0 .4.3.7.6 1l1.2.2c.5 0 1 0 1.3-.3.3-.3.4-.5.4-.9 0-.2 0-.5-.2-.6-.2-.2-.5-.4-.9-.4l-1.3-.3a3 3 0 0 1-1.5-.8c-.3-.4-.5-.8-.5-1.3s.1-.8.4-1.2c.2-.3.6-.6 1-.8l1.4-.2c.8 0 1.4.1 1.8.5.4.3.7.7 1 1.3Zm2 6v-7.6h1.1v7.6h-1.2Zm.5-9-.6-.1a.7.7 0 0 1-.2-.6c0-.2 0-.4.2-.6l.6-.2c.3 0 .4 0 .6.2l.3.6-.3.6-.6.2Zm8.2 3-1.1.4a2 2 0 0 0-.3-.5l-.5-.5-.8-.1a2 2 0 0 0-1.2.3c-.3.2-.5.5-.5.8 0 .3.1.5.3.7l1 .4 1.2.3c.7.2 1.2.4 1.5.8.3.3.5.7.5 1.3 0 .4-.1.8-.4 1.1-.2.4-.6.7-1 .9-.5.2-1 .3-1.6.3-.8 0-1.4-.2-2-.5-.4-.4-.8-.9-.9-1.5l1.1-.3c.1.4.3.7.6 1l1.2.2c.5 0 1 0 1.3-.3.3-.3.5-.5.5-.9 0-.2-.1-.5-.3-.6-.2-.2-.5-.4-.8-.4l-1.3-.3a3 3 0 0 1-1.6-.8c-.3-.4-.5-.8-.5-1.3s.2-.8.4-1.2l1-.8 1.5-.2c.7 0 1.3.1 1.7.5.5.3.8.7 1 1.3Zm9.1-1.6v1h-4v-1h4Zm-2.8-1.9h1.2v7.3l.1.8.4.3h1l.3 1a2.4 2.4 0 0 1-1 .2c-.2 0-.6 0-.9-.2a2 2 0 0 1-.8-.7c-.2-.3-.3-.6-.3-1v-7.7Zm7.7 9.7c-.7 0-1.4-.2-1.9-.5-.5-.4-1-.8-1.2-1.4a4.7 4.7 0 0 1 0-4.1c.3-.6.7-1 1.2-1.4.5-.4 1.1-.5 1.8-.5.4 0 .8 0 1.2.2a3 3 0 0 1 1.8 1.8c.2.5.3 1 .3 1.8v.5h-6v-1h4.8c0-.5-.1-.8-.3-1.2a2 2 0 0 0-1.8-1c-.5 0-.9 0-1.2.3-.4.2-.6.5-.8.9-.2.3-.3.7-.3 1.1v.7c0 .6.1 1 .3 1.5.2.4.5.7.9.9.3.2.7.3 1.2.3l.8-.1.7-.4.4-.7 1.1.3c0 .4-.3.8-.6 1a3 3 0 0 1-1 .7c-.4.2-.9.3-1.4.3Zm6.1-10.4V122H164v-10.2h1.1Zm3.3 0V122h-1.1v-10.2h1.1Zm7 7v-4.4h1.2v7.6h-1.2v-1.3c-.2.4-.5.7-1 1-.3.3-.8.4-1.3.4s-1-.1-1.3-.3c-.4-.2-.7-.5-.9-1-.2-.4-.3-1-.3-1.6v-4.8h1.2v4.7c0 .6.1 1 .4 1.4.4.3.8.5 1.2.5a2 2 0 0 0 2-2.1Zm8.7-2.7-1 .3a2 2 0 0 0-.3-.5l-.5-.5-.9-.1a2 2 0 0 0-1.1.3c-.3.2-.5.5-.5.8 0 .3.1.5.3.7.2.2.6.3 1 .4l1.2.3c.6.2 1.1.4 1.5.8.3.3.5.7.5 1.3 0 .4-.1.8-.4 1.1-.2.4-.6.7-1 .9-.5.2-1 .3-1.6.3-.8 0-1.4-.2-2-.5-.4-.4-.8-.9-1-1.5l1.2-.3c.1.4.3.7.6 1l1.2.2c.5 0 1 0 1.3-.3.3-.3.5-.5.5-.9 0-.2-.1-.5-.3-.6-.2-.2-.5-.4-.9-.4l-1.2-.3a3 3 0 0 1-1.6-.8c-.3-.4-.5-.8-.5-1.3s.2-.8.4-1.2c.2-.3.6-.6 1-.8l1.4-.2c.8 0 1.4.1 1.8.5.5.3.8.7 1 1.3Zm9.2-1.7v1h-4v-1h4Zm-2.8-1.9h1.2v7.3l.1.8.4.3h1l.2 1a2.4 2.4 0 0 1-.8.2c-.4 0-.7 0-1-.2a2 2 0 0 1-.8-.7c-.2-.3-.3-.6-.3-1v-7.7Zm4.6 9.5v-7.6h1.1v7.6H195Zm.6-9-.6-.1a.8.8 0 0 1-.3-.6l.3-.6.6-.2c.2 0 .4 0 .6.2l.2.6c0 .2 0 .4-.2.6l-.6.2Zm3.9 4.4v4.6h-1.2v-7.6h1.1v1.2h.1l.8-1c.4-.2.9-.3 1.5-.3.5 0 1 0 1.3.3.4.2.7.5 1 1l.2 1.5v4.9h-1.1v-4.8c0-.6-.2-1-.5-1.4-.3-.3-.7-.5-1.3-.5a2 2 0 0 0-1 .3c-.3.1-.5.4-.7.7l-.2 1.1Zm10 4.8c-.6 0-1.2-.2-1.8-.5-.5-.4-.9-.9-1.2-1.4-.2-.6-.4-1.3-.4-2 0-.9.2-1.5.5-2.1.2-.6.6-1 1.2-1.4.5-.4 1-.5 1.8-.5.5 0 1 0 1.4.3.4.2.8.4 1 .8.3.4.5.8.6 1.3h-1.2a1.8 1.8 0 0 0-1.8-1.4 2 2 0 0 0-1.2.4c-.4.2-.6.5-.8 1-.2.4-.3 1-.3 1.5 0 .6 0 1 .3 1.5.2.5.4.8.8 1 .3.3.7.4 1.2.4.3 0 .6 0 .8-.2a1.7 1.7 0 0 0 1-1.1h1.2a2.7 2.7 0 0 1-1.5 2c-.5.3-1 .4-1.5.4Z"/><path stroke="#282D45" d="M21 178.5h376"/><path fill="#8F9BB7" d="M22.2 167v-10.2h6.1v1.1h-4.8v3.5h4.4v1h-4.4v4.6h-1.3Zm8 0v-7.6h1.1v1.1h.1c.2-.4.4-.7.8-.9.3-.2.8-.4 1.2-.4a14.8 14.8 0 0 1 .6 0v1.3a4.3 4.3 0 0 0-.7-.1 2 2 0 0 0-1 .2l-.7.6-.2 1v4.8h-1.2Zm8 .2c-.6 0-1.2-.2-1.7-.5-.5-.4-1-.8-1.2-1.4a4.7 4.7 0 0 1 0-4.2 3.3 3.3 0 0 1 3-1.9c.7 0 1.3.2 1.8.6.5.3 1 .7 1.2 1.3.3.6.4 1.3.4 2.1s-.1 1.5-.4 2c-.3.7-.7 1.1-1.2 1.5-.5.3-1.1.5-1.8.5Zm0-1c.6 0 1-.2 1.4-.5.3-.3.6-.6.7-1l.3-1.5c0-.5-.1-1-.3-1.4-.1-.4-.4-.8-.7-1a2 2 0 0 0-1.3-.5 2 2 0 0 0-1.3.4l-.8 1.1a4 4 0 0 0-.2 1.4c0 .5 0 1 .2 1.4.2.5.5.8.8 1.1.3.3.8.4 1.3.4Zm5.3.8v-7.6h1.2v1.2c.2-.4.5-.8.8-1 .4-.2.8-.3 1.3-.3s1 0 1.3.3c.3.2.6.6.8 1 .2-.4.5-.8 1-1 .3-.2.8-.3 1.3-.3.7 0 1.3.2 1.7.6.4.4.7 1 .7 2v5.1h-1.2v-5.1c0-.6-.2-1-.5-1.2-.3-.3-.6-.4-1-.4-.6 0-1 .2-1.3.5-.3.3-.5.7-.5 1.2v5H48v-5.2c0-.5-.2-.8-.5-1-.3-.3-.6-.5-1-.5s-.6.1-1 .3l-.5.6a2 2 0 0 0-.3 1v4.8h-1.2Z"/><path fill="#F6F6F7" d="M95.3 167.2c-.5 0-.9-.1-1.3-.3-.4-.2-.7-.4-1-.8-.2-.3-.3-.8-.3-1.3 0-.4.1-.8.3-1 .1-.3.4-.5.7-.7l1-.3a12 12 0 0 1 2.1-.3l.6-.2c.2 0 .2-.2.2-.4 0-.5 0-1-.4-1.2-.2-.3-.6-.4-1.2-.4-.5 0-1 .1-1.3.4l-.7.8-1-.4a2.7 2.7 0 0 1 1.8-1.7 4.5 4.5 0 0 1 2 0c.4 0 .7.1 1 .3l.7.8c.2.4.3.9.3 1.5v5h-1.2v-1l-.4.5-.8.5-1 .2Zm.2-1c.5 0 .9-.2 1.2-.3a1.9 1.9 0 0 0 1-1.7v-1l-.4.1a5.5 5.5 0 0 1-1.2.2 24.8 24.8 0 0 0-1.3.3c-.3 0-.5.2-.7.4a1 1 0 0 0-.2.7c0 .4.1.7.4 1l1.2.2Zm8.6 1c-.8 0-1.4-.2-1.9-.5-.5-.4-.9-.9-1.2-1.4-.3-.6-.4-1.3-.4-2 0-.9.1-1.5.4-2.1.3-.6.7-1 1.2-1.4.6-.4 1.2-.5 1.8-.5.6 0 1 0 1.5.3.4.2.8.4 1 .8.3.4.5.8.6 1.3h-1.2c0-.4-.3-.7-.6-1-.3-.2-.7-.4-1.2-.4a2 2 0 0 0-1.2.4c-.4.2-.6.5-.8 1-.2.4-.3 1-.3 1.5 0 .6 0 1 .3 1.5.1.5.4.8.8 1 .3.3.7.4 1.2.4.3 0 .5 0 .8-.2a1.7 1.7 0 0 0 1-1.1h1.2a2.7 2.7 0 0 1-1.6 2c-.4.3-.9.4-1.4.4Zm4.7-.2v-7.6h1.2v7.6h-1.2Zm.6-9-.6-.1a.7.7 0 0 1-.3-.6l.3-.6.6-.2c.2 0 .4 0 .6.2l.2.6c0 .2 0 .4-.2.6l-.6.2Zm3.9-1.2V167H112v-10.2h1.2Zm2.1 10.2v-7.6h1.2v7.6h-1.2Zm.6-9-.6-.1a.7.7 0 0 1-.2-.6c0-.2 0-.4.2-.6l.6-.2c.3 0 .4 0 .6.2l.3.6-.3.6-.6.2Zm8.2 3-1 .4a2 2 0 0 0-.4-.5l-.5-.5-.8-.1a2 2 0 0 0-1.2.3c-.3.2-.5.5-.5.8 0 .3.1.5.3.7l1 .4 1.2.3c.7.2 1.2.4 1.5.8.3.3.5.7.5 1.3 0 .4-.1.8-.4 1.1-.2.4-.6.7-1 .9-.5.2-1 .3-1.6.3-.8 0-1.4-.2-2-.5-.4-.4-.8-.9-.9-1.5l1.1-.3c.1.4.3.7.6 1l1.2.2c.5 0 1 0 1.3-.3.3-.3.5-.5.5-.9 0-.2-.1-.5-.3-.6-.2-.2-.5-.4-.8-.4l-1.3-.3a3 3 0 0 1-1.6-.8c-.3-.4-.4-.8-.4-1.3s0-.8.3-1.2l1-.8 1.5-.2c.7 0 1.3.1 1.7.5.5.3.8.7 1 1.3Zm1.9 6v-7.6h1.1v7.6h-1.1Zm.6-9-.6-.1a.8.8 0 0 1-.3-.6l.3-.6.6-.2c.2 0 .4 0 .5.2l.3.6c0 .2 0 .4-.3.6l-.5.2Zm8 3-1 .4a2 2 0 0 0-.3-.5c0-.2-.3-.3-.5-.5l-.8-.1a2 2 0 0 0-1.2.3c-.3.2-.4.5-.4.8 0 .3 0 .5.3.7.2.2.5.3 1 .4l1.1.3c.7.2 1.2.4 1.5.8.4.3.5.7.5 1.3 0 .4 0 .8-.3 1.1-.3.4-.6.7-1 .9-.5.2-1 .3-1.6.3-.8 0-1.5-.2-2-.5-.5-.4-.8-.9-1-1.5l1.2-.3c0 .4.3.7.6 1l1.1.2c.6 0 1 0 1.3-.3.4-.3.5-.5.5-.9 0-.2 0-.5-.3-.6-.1-.2-.4-.4-.8-.4l-1.3-.3a3 3 0 0 1-1.5-.8c-.4-.4-.5-.8-.5-1.3s.1-.8.3-1.2l1-.8 1.5-.2c.7 0 1.3.1 1.8.5.4.3.7.7.9 1.3Zm7.9 8.7c-1 0-2-.2-2.7-.4a5 5 0 0 1-3.2-3.2 8 8 0 0 1-.4-2.7c0-1 .1-1.8.4-2.6.3-.8.7-1.4 1.2-2 .6-.5 1.2-.9 2-1.2a7.4 7.4 0 0 1 5 0 5 5 0 0 1 2.8 3c.2.7.4 1.3.4 2l-.1 1.5c0 .5-.2 1-.3 1.3-.2.4-.4.8-.7 1a2 2 0 0 1-1.3.4 3 3 0 0 1-.7-.1 2 2 0 0 1-.8-.4 1 1 0 0 1-.3-.7h-.1a1.8 1.8 0 0 1-1 1c-.3.1-.6.2-1 .1-.4 0-.8 0-1.1-.2l-.8-.8c-.3-.3-.4-.6-.5-1a5 5 0 0 1-.2-1.4c0-.4 0-.8.2-1.2.1-.4.3-.7.6-1a2.8 2.8 0 0 1 1.8-1l1 .1.6.3c.2.1.3.2.3.4h.1v-.6h1v4.5c0 .3.1.5.3.7.1.3.4.4.7.4.3 0 .6-.1.7-.4.2-.2.4-.6.4-1l.1-2a4.8 4.8 0 0 0-.7-2.4 4 4 0 0 0-2.2-1.7 5.7 5.7 0 0 0-3.8.1 4.2 4.2 0 0 0-2.6 2.7c-.2.7-.3 1.4-.3 2.2 0 .9.1 1.6.3 2.3l1 1.7 1.7 1a6.6 6.6 0 0 0 4.2 0l.6-.2.3 1-.8.2a9.7 9.7 0 0 1-2.1.3Zm-.6-4c.4 0 .8 0 1-.2l.7-.8.2-1.4-.2-1.3c-.2-.3-.4-.6-.7-.7l-1-.2c-.3 0-.7.1-1 .3l-.6.8-.2 1 .2 1.3c.1.4.3.7.6.9.2.2.6.3 1 .3Zm11 1.5a3.3 3.3 0 0 1-3.1-1.9c-.3-.6-.4-1.3-.4-2 0-.8.1-1.5.4-2.1.3-.6.7-1 1.2-1.4.5-.4 1.1-.5 1.8-.5.4 0 .8 0 1.2.2a3 3 0 0 1 1.8 1.8c.2.5.3 1 .3 1.8v.5h-6v-1h4.8c0-.5-.1-.8-.3-1.2a2 2 0 0 0-1.8-1c-.5 0-.9 0-1.2.3-.4.2-.6.5-.8.9-.2.3-.3.7-.3 1.1v.7c0 .6.1 1 .3 1.5.2.4.5.7.9.9.3.2.7.3 1.2.3l.8-.1.7-.4.4-.7 1.2.3-.6 1a3 3 0 0 1-1 .7l-1.5.3Zm5-.2v-7.6h1v1.2h.2c.2-.4.4-.8.8-1 .3-.2.7-.3 1.2-.3s1 0 1.3.3c.3.2.6.6.8 1 .3-.4.6-.8 1-1 .3-.2.8-.3 1.4-.3.6 0 1.2.2 1.6.6.5.4.7 1 .7 2v5.1h-1.2v-5.1c0-.6-.1-1-.5-1.2-.3-.3-.6-.4-1-.4-.6 0-1 .2-1.3.5-.3.3-.4.7-.4 1.2v5h-1.2v-5.2c0-.5-.2-.8-.4-1-.3-.3-.7-.5-1.1-.5l-.9.3c-.3.1-.5.4-.6.6a2 2 0 0 0-.3 1v4.8H158Zm14.4.2c-.5 0-1-.1-1.3-.3-.4-.2-.7-.4-1-.8-.2-.3-.3-.8-.3-1.3 0-.4 0-.8.2-1l.7-.7 1-.3a12 12 0 0 1 2.2-.3l.6-.2.2-.4c0-.5-.1-1-.4-1.2-.3-.3-.7-.4-1.2-.4-.6 0-1 .1-1.3.4-.3.2-.6.5-.7.8l-1.1-.4a2.7 2.7 0 0 1 1.9-1.7 4.5 4.5 0 0 1 2 0l1 .3.7.8c.2.4.3.9.3 1.5v5h-1.2v-1l-.5.5c-.1.2-.4.3-.7.5l-1.1.2Zm.2-1c.4 0 .8-.2 1.1-.3a1.9 1.9 0 0 0 1-1.7v-1l-.3.1a5.5 5.5 0 0 1-1.2.2 25 25 0 0 0-1.4.3c-.2 0-.5.2-.6.4a1 1 0 0 0-.3.7c0 .4.2.7.5 1l1.2.2Zm5.4.8v-7.6h1.2v7.6H178Zm.6-9-.6-.1a.7.7 0 0 1-.2-.6c0-.2 0-.4.2-.6l.6-.2c.2 0 .4 0 .6.2.2.2.2.4.2.6 0 .2 0 .4-.2.6l-.6.2Zm4-1.2V167h-1.3v-10.2h1.2Zm3 10.3c-.3 0-.5-.1-.7-.3a.9.9 0 0 1-.3-.6c0-.3.1-.5.3-.6l.6-.3c.3 0 .5 0 .6.3.2.1.3.3.3.6l-.1.4c0 .2-.2.3-.3.4h-.5Zm6 0c-.7 0-1.3-.1-1.8-.4-.5-.4-1-.9-1.2-1.4-.3-.6-.4-1.3-.4-2 0-.9.1-1.5.4-2.1.3-.6.7-1 1.2-1.4.5-.4 1.1-.5 1.8-.5.5 0 1 0 1.5.3a2.6 2.6 0 0 1 1.6 2h-1.3a1.8 1.8 0 0 0-1.8-1.3 2 2 0 0 0-1.2.4c-.3.2-.6.5-.8 1-.2.4-.3 1-.3 1.5 0 .6.1 1 .3 1.5.2.5.5.8.8 1a2.1 2.1 0 0 0 2 .2 1.7 1.7 0 0 0 1-1.1h1.2a2.7 2.7 0 0 1-1.5 2c-.4.3-1 .4-1.5.4Zm7.8 0c-.7 0-1.3-.1-1.8-.4-.5-.4-.9-.8-1.2-1.4-.3-.6-.4-1.3-.4-2 0-.9.1-1.6.4-2.2a3.3 3.3 0 0 1 3-1.9c.7 0 1.3.2 1.8.6.6.3 1 .7 1.3 1.3.3.6.4 1.3.4 2.1s-.1 1.5-.4 2a3.3 3.3 0 0 1-3 1.9Zm0-1c.6 0 1-.1 1.3-.4.4-.3.6-.6.8-1l.2-1.5c0-.5 0-1-.2-1.4-.2-.4-.4-.8-.8-1a2 2 0 0 0-1.3-.5 2 2 0 0 0-1.3.4l-.7 1.1c-.2.4-.2 1-.2 1.4 0 .5 0 1 .2 1.4l.7 1.1c.4.3.8.4 1.3.4Zm5.3.9v-7.6h1.1v1.2h.1c.2-.4.4-.8.8-1 .3-.2.8-.3 1.3-.3s.9 0 1.2.3c.4.2.6.6.8 1h.1c.2-.4.5-.8.9-1 .4-.2.8-.3 1.4-.3.7 0 1.2.2 1.7.6.4.4.6 1 .6 2v5.1h-1.2v-5.1c0-.6-.1-1-.4-1.2-.3-.3-.7-.4-1.1-.4-.5 0-1 .2-1.3.5-.3.3-.4.7-.4 1.2v5h-1.2v-5.2c0-.5-.1-.8-.4-1-.3-.3-.7-.5-1.1-.5l-.9.3-.6.6a2 2 0 0 0-.2 1v4.8h-1.2ZM29.2 205l-.4-.9a2.8 2.8 0 0 0-2.5-1.3 3 3 0 0 0-2.8 1.9c-.3.6-.5 1.3-.5 2.2 0 .9.2 1.6.5 2.2.3.6.7 1.1 1.2 1.4.5.3 1 .5 1.7.5.6 0 1-.1 1.5-.4.5-.2.8-.6 1-1 .3-.5.4-1 .4-1.7l.4.1h-3v-1h3.8v1c0 .8-.2 1.6-.5 2.2-.4.6-.9 1-1.5 1.4-.6.4-1.3.5-2.1.5-1 0-1.7-.2-2.4-.6-.7-.4-1.2-1-1.6-1.8-.4-.8-.6-1.7-.6-2.8 0-.8.1-1.5.4-2.2.2-.6.5-1.2.9-1.6a4 4 0 0 1 3.2-1.4 4.5 4.5 0 0 1 2.7.9 3.9 3.9 0 0 1 1.5 2.4h-1.3Zm3.8 7v-7.6H34v7.6H33Zm.6-9-.6-.1a.7.7 0 0 1-.3-.6l.3-.6.6-.2c.2 0 .4 0 .5.2l.3.6c0 .2 0 .4-.3.6l-.5.2Zm3.9-1.2V212h-1.2v-10.2h1.2Zm2.1 10.2v-7.6h1.2v7.6h-1.2Zm.6-9-.6-.1a.7.7 0 0 1-.2-.6c0-.2 0-.4.2-.6l.6-.2c.2 0 .4 0 .6.2.2.2.2.4.2.6 0 .2 0 .4-.2.6l-.6.2Zm8.1 3-1 .4a2 2 0 0 0-.3-.5l-.5-.5-.9-.1a2 2 0 0 0-1.1.3c-.3.2-.5.5-.5.8 0 .3.1.5.3.7.2.2.6.3 1 .4l1.1.3c.7.2 1.2.4 1.6.8.3.3.5.7.5 1.3 0 .4-.2.8-.4 1.1-.3.4-.6.7-1 .9-.5.2-1 .3-1.6.3-.8 0-1.4-.2-2-.5-.5-.4-.8-.9-1-1.5l1.2-.3c.1.4.3.7.6 1l1.2.2c.5 0 1 0 1.3-.3.3-.3.5-.5.5-.9 0-.2-.1-.5-.3-.6-.2-.2-.5-.4-.9-.4l-1.2-.3a3 3 0 0 1-1.6-.8c-.3-.4-.5-.8-.5-1.3s.1-.8.4-1.2c.2-.3.6-.6 1-.8l1.4-.2c.8 0 1.4.1 1.8.5.4.3.8.7 1 1.3Zm2 6v-7.6h1.1v7.6h-1.2Zm.5-9-.6-.1a.7.7 0 0 1-.2-.6c0-.2 0-.4.2-.6l.6-.2c.3 0 .5 0 .6.2l.3.6-.3.6-.6.2Zm8.2 3-1 .4a2 2 0 0 0-.4-.5l-.5-.5-.8-.1a2 2 0 0 0-1.2.3c-.3.2-.5.5-.5.8 0 .3.1.5.4.7.2.2.5.3 1 .4l1 .3c.8.2 1.3.4 1.6.8.3.3.5.7.5 1.3 0 .4-.1.8-.4 1.1-.2.4-.6.7-1 .9-.5.2-1 .3-1.6.3-.8 0-1.4-.2-2-.5-.4-.4-.7-.9-.9-1.5l1.1-.3c.1.4.3.7.6 1l1.2.2c.6 0 1 0 1.3-.3.3-.3.5-.5.5-.9 0-.2-.1-.5-.3-.6-.2-.2-.5-.4-.8-.4l-1.3-.3a3 3 0 0 1-1.6-.8c-.3-.4-.4-.8-.4-1.3s0-.8.3-1.2l1-.8 1.5-.2c.7 0 1.3.1 1.7.5.5.3.8.7 1 1.3Z"/><path stroke="#282D45" d="M21 88.5h376"/><path fill="#8F9BB7" d="M21.7 67v-1.2h7.6V67h-3.2V76H25v-9h-3.2ZM33 76.1c-.7 0-1.3-.2-1.9-.5-.5-.4-.9-.8-1.2-1.4-.3-.6-.4-1.3-.4-2 0-.9.1-1.6.4-2.2a3.3 3.3 0 0 1 3-1.9c.7 0 1.3.2 1.9.6.5.3.9.7 1.2 1.3.3.6.4 1.3.4 2.1s-.1 1.5-.4 2c-.3.7-.7 1.1-1.2 1.5-.6.3-1.2.5-1.8.5Zm0-1.1c.5 0 1-.1 1.2-.4.4-.3.6-.6.8-1 .2-.5.2-1 .2-1.5s0-1-.2-1.4c-.2-.4-.4-.8-.8-1a2 2 0 0 0-1.2-.5 2 2 0 0 0-1.3.4c-.4.3-.6.7-.8 1-.2.5-.2 1-.2 1.5s0 1 .2 1.4c.2.5.4.8.8 1.1.3.3.7.4 1.3.4Z"/><rect width="85" height="24" x="55" y="59" fill="#282D45" rx="12"/><path fill="#F6F6F7" d="M70.8 68.5c0-.5-.2-.8-.6-1-.4-.3-.8-.4-1.3-.4-.4 0-.8 0-1 .2-.3.1-.6.3-.7.5a1.2 1.2 0 0 0 0 1.3c0 .2.2.3.3.5l.6.2.5.2 1 .2.7.3c.3 0 .5.2.8.4.2.2.5.4.6.7.2.3.3.6.3 1 0 .5-.2 1-.4 1.3-.2.4-.6.7-1 1a4 4 0 0 1-1.8.3 4 4 0 0 1-1.6-.3c-.5-.3-.8-.5-1-.9-.3-.4-.5-.8-.5-1.2h1l.4.8.7.4 1 .2c.4 0 .8 0 1.1-.2.3-.1.6-.3.8-.6.2-.2.2-.5.2-.8 0-.3 0-.5-.2-.7l-.6-.4-.9-.3-1-.3a4 4 0 0 1-1.7-.9c-.4-.3-.6-.8-.6-1.4 0-.5.2-1 .4-1.3.3-.4.6-.6 1-.8.5-.2 1-.3 1.6-.3.6 0 1 0 1.5.3.4.2.8.4 1 .8.3.3.4.7.5 1.2h-1Zm4.7 6.7c-.4 0-.8-.1-1.1-.3a2 2 0 0 1-.8-.7 2 2 0 0 1-.3-1c0-.4 0-.7.2-1 .1-.2.3-.4.6-.5.2-.2.5-.3.8-.3a10 10 0 0 1 1.9-.3l.5-.1.2-.4c0-.4-.1-.8-.4-1-.2-.2-.5-.3-1-.3s-.8 0-1.1.3l-.6.6-1-.3a2.3 2.3 0 0 1 1.7-1.4 3.9 3.9 0 0 1 1.7 0l.8.2c.3.2.5.4.6.7.2.4.3.8.3 1.3V75h-1v-.9l-.4.5a2 2 0 0 1-.6.4l-1 .2Zm.2-1c.4 0 .7 0 1-.2a1.6 1.6 0 0 0 .8-1.4v-.9l-.3.2a4.7 4.7 0 0 1-1 .1 26.9 26.9 0 0 0-1.2.3c-.2 0-.4.1-.5.3-.2.1-.2.3-.2.6s.1.6.4.8c.2.2.6.3 1 .3Zm4.6-5.7h1v7c0 .4 0 .7-.2 1-.1.3-.3.5-.6.7a2 2 0 0 1-1 .3h-.2v-1h.1c.4 0 .6 0 .7-.3.2-.1.2-.4.2-.7v-7Zm.5-1.1-.5-.2a.6.6 0 0 1-.2-.5c0-.2 0-.4.2-.5l.5-.2c.2 0 .4 0 .5.2.2.1.2.3.2.5s0 .3-.2.5l-.5.2Zm2.4 7.6v-6.5h1V75h-1Zm.5-7.6-.5-.2a.6.6 0 0 1-.2-.5c0-.2 0-.4.2-.5l.5-.2c.2 0 .4 0 .5.2l.2.5c0 .2 0 .3-.2.5l-.5.2Zm2.5 7.6v-8.7h1v3.2l.4-.4.5-.5a2 2 0 0 1 1-.2 2.6 2.6 0 0 1 2.5 1.6c.2.5.3 1 .3 1.7s0 1.3-.3 1.8c-.2.6-.6 1-1 1.2-.4.3-.9.4-1.4.4a2 2 0 0 1-1-.2c-.3-.1-.5-.3-.6-.5-.2-.1-.3-.3-.3-.4H87v1h-1Zm1-3.3c0 .5 0 1 .2 1.3.1.4.3.7.6 1l1 .2c.5 0 .8 0 1-.3.4-.2.6-.5.7-.9.2-.4.2-.8.2-1.3 0-.4 0-.8-.2-1.2a2 2 0 0 0-.6-.9c-.3-.2-.6-.3-1-.3a1.7 1.7 0 0 0-1.7 1.1c-.2.4-.2.8-.2 1.3ZM97 75v-8.7h1v3.9h4.7v-4h1V75h-1v-3.9h-4.6V75H97Zm9.5 0c-.2 0-.4 0-.6-.2a.7.7 0 0 1-.2-.5c0-.2 0-.4.2-.5l.6-.3c.2 0 .4.1.5.3.2.1.2.3.2.5v.4l-.3.3h-.4Z"/><path stroke="#8F9BB7" stroke-linecap="round" stroke-linejoin="round" stroke-width="1.5" d="m126 67-8 8M118 67l8 8"/><path fill="#8F9BB7" d="M344.4 69h-1.2a2.6 2.6 0 0 0-1-1.6l-.9-.4a3.4 3.4 0 0 0-2.6.3c-.5.3-1 .8-1.2 1.4-.3.6-.5 1.3-.5 2.2 0 .9.2 1.6.5 2.2.3.6.7 1.1 1.2 1.4.5.3 1 .5 1.6.5.4 0 .7 0 1-.2.3 0 .6-.2.9-.4a2.6 2.6 0 0 0 1-1.6h1.2c0 .5-.2 1-.5 1.4a3.8 3.8 0 0 1-2.1 1.7 4.6 4.6 0 0 1-3.8-.4c-.7-.4-1.2-1-1.6-1.8-.4-.8-.6-1.7-.6-2.8 0-1 .2-2 .6-2.8.4-.8 1-1.4 1.6-1.8.7-.4 1.5-.6 2.3-.6a4 4 0 0 1 3.6 2c.3.3.4.8.5 1.3Zm10.2 0h-1.2a2.6 2.6 0 0 0-1-1.6l-1-.4-.9-.2c-.6 0-1.2.2-1.7.5s-.9.8-1.1 1.4c-.3.6-.5 1.3-.5 2.2 0 .9.2 1.6.5 2.2.2.6.6 1.1 1.1 1.4.5.3 1.1.5 1.7.5.4 0 .7 0 1-.2.3 0 .6-.2.8-.4a2.6 2.6 0 0 0 1-1.6h1.3c0 .5-.3 1-.5 1.4A3.8 3.8 0 0 1 352 76a4.6 4.6 0 0 1-3.8-.4c-.7-.4-1.2-1-1.6-1.8-.4-.8-.6-1.7-.6-2.8 0-1 .2-2 .6-2.8.4-.8 1-1.4 1.6-1.8.7-.4 1.4-.6 2.3-.6a4 4 0 0 1 3.6 2c.3.3.4.8.5 1.3ZM368.2 76V65.8h3.6c.7 0 1.3.1 1.7.4.5.2.9.6 1 1 .3.4.4.8.4 1.3s0 .8-.2 1.1l-.6.7c-.3.1-.5.3-.8.3v.1c.3 0 .6.2.9.4l.8.8c.2.4.3.9.3 1.4 0 .5-.1 1-.3 1.4-.3.4-.6.7-1.1 1-.5.2-1.2.3-2 .3h-3.7Zm1.3-1h2.4c.8 0 1.4-.3 1.7-.6.4-.3.5-.7.5-1.1 0-.3 0-.7-.2-1a2 2 0 0 0-.8-.7l-1.1-.2h-2.5v3.5Zm0-4.7h2.3c.3 0 .7 0 1-.2l.7-.6c.2-.3.2-.6.2-1s-.1-.8-.4-1.1c-.3-.3-.8-.5-1.5-.5h-2.3v3.4Zm16-1.3h-1.2a2.6 2.6 0 0 0-1-1.6l-.9-.4a3.4 3.4 0 0 0-2.6.3c-.5.3-1 .8-1.2 1.4-.3.6-.5 1.3-.5 2.2 0 .9.2 1.6.5 2.2.3.6.7 1.1 1.2 1.4.5.3 1 .5 1.6.5.4 0 .7 0 1-.2.3 0 .6-.2.9-.4a2.6 2.6 0 0 0 1-1.6h1.2c0 .5-.2 1-.5 1.4A3.8 3.8 0 0 1 383 76a4.6 4.6 0 0 1-3.8-.4c-.7-.4-1.2-1-1.6-1.8-.4-.8-.6-1.7-.6-2.8 0-1 .2-2 .6-2.8.4-.8 1-1.4 1.6-1.8.7-.4 1.5-.6 2.3-.6a4 4 0 0 1 3.6 2c.3.3.4.8.5 1.3Zm10.2 0h-1.2a2.6 2.6 0 0 0-1-1.6l-.9-.4a3.4 3.4 0 0 0-2.7.3c-.5.3-.8.8-1.1 1.4-.3.6-.5 1.3-.5 2.2 0 .9.2 1.6.5 2.2.3.6.6 1.1 1.1 1.4.5.3 1.1.5 1.7.5.4 0 .7 0 1-.2.3 0 .6-.2.8-.4a2.6 2.6 0 0 0 1-1.6h1.3c0 .5-.2 1-.5 1.4a3.8 3.8 0 0 1-2.1 1.7 4.6 4.6 0 0 1-3.8-.4c-.7-.4-1.2-1-1.6-1.8-.4-.8-.6-1.7-.6-2.8 0-1 .2-2 .6-2.8.4-.8 1-1.4 1.6-1.8.7-.4 1.5-.6 2.3-.6a4 4 0 0 1 3.6 2c.3.3.4.8.5 1.3Z"/></g></svg>