<svg xmlns="http://www.w3.org/2000/svg" width="488" height="211" fill="none"><mask id="a" width="488" height="211" x="0" y="0" maskUnits="userSpaceOnUse" style="mask-type:alpha"><path fill="#D9D9D9" d="M.5 0h487v211H.5z"/></mask><g mask="url(#a)"><rect width="72" height="62.5" x="408.5" y="101" fill="#0E1330" rx="5"/><rect width="72" height="21.8" x="408.5" y="67.2" fill="#0E1330" rx="5"/><rect width="72" height="21.8" x="408.5" y="35.5" fill="#0E1330" rx="5"/><rect width="20" height="18.8" x="408.5" y="2.8" fill="#B756FE" opacity=".6" rx="5"/><rect width="19" height="18.8" x="435.5" y="2.8" fill="#7214FF" opacity=".6" rx="5"/><rect width="20" height="18.8" x="461.5" y="2.8" fill="#32CAFD" opacity=".6" rx="5"/><rect width="158" height="86.3" x="2.5" y="2.8" fill="#0E1330" rx="5"/><rect width="15" height="14.9" x="16.5" y="15.7" fill="#282D45" rx="4"/><rect width="15" height="14.9" x="16.5" y="61.3" fill="#282D45" rx="4"/><rect width="105" height="14.9" x="42.5" y="15.7" fill="#2D55FB" opacity=".4" rx="4"/><rect width="105" height="14.9" x="42.5" y="38.5" fill="#32CAFD" opacity=".4" rx="4"/><rect width="105" height="14.9" x="42.5" y="61.3" fill="#B756FE" opacity=".4" rx="4"/><rect width="96" height="86.3" x="172.5" y="2.8" fill="#0E1330" rx="5"/><path stroke="#282D45" stroke-linecap="round" stroke-width="10" d="M192.5 21.6h54M192.5 44.4h54"/><path stroke="#282D45" stroke-linecap="round" stroke-width="13" d="M220 70.7h25M194 70.7h6"/><rect width="266" height="62.5" x="2.5" y="101" fill="#0E1330" rx="5"/><path stroke="#282D45" stroke-linecap="round" stroke-width="10" d="M19.5 117.8h52"/><path stroke="#282D45" stroke-linecap="round" stroke-width="5" d="M17 135.1h226M17 148h188"/><rect width="266" height="62.5" x="2.5" y="175.3" fill="#0E1330" rx="5"/><path stroke="#282D45" stroke-linecap="round" stroke-width="10" d="M19.5 192.1h52"/><path stroke="#282D45" stroke-linecap="round" stroke-width="5" d="M17 209.5h226"/><rect width="200" height="62.5" x="280.5" y="175.3" fill="#0E1330" rx="5"/><path stroke="#282D45" stroke-linecap="round" stroke-width="10" d="M297.5 192.1h52"/><path stroke="#282D45" stroke-linecap="round" stroke-width="5" d="M295 209.5h160"/><rect width="116" height="160.6" x="280.5" y="2.8" fill="#0E1330" rx="5"/><path stroke="#282D45" stroke-linecap="round" stroke-width="10" d="M300.5 20.6h73"/><path stroke="#282D45" stroke-linecap="round" stroke-width="5" d="M319 46.9h57M298 46.9h5M319 72.7h57M298 72.7h5M319 59.8h57M298 59.8h5M319 85.6h57M298 85.6h5M363 148h13M298 148h50"/></g></svg>